<svg width="12" height="24" viewBox="0 0 12 24" fill="none" xmlns="http://www.w3.org/2000/svg">
<path d="M1.5 0C1.10218 0 0.720645 0.158035 0.43934 0.43934C0.158036 0.720644 0 1.10218 0 1.5V22.5C0 22.8978 0.158036 23.2794 0.43934 23.5607C0.720645 23.842 1.10218 24 1.5 24H10.5C10.8978 24 11.2794 23.842 11.5607 23.5607C11.842 23.2794 12 22.8978 12 22.5V1.5C12 1.10218 11.842 0.720644 11.5607 0.43934C11.2794 0.158035 10.8978 0 10.5 0L1.5 0ZM2.25 21C2.44891 21 2.63968 21.079 2.78033 21.2197C2.92098 21.3603 3 21.5511 3 21.75C3 21.9489 2.92098 22.1397 2.78033 22.2803C2.63968 22.421 2.44891 22.5 2.25 22.5C2.05109 22.5 1.86032 22.421 1.71967 22.2803C1.57902 22.1397 1.5 21.9489 1.5 21.75C1.5 21.5511 1.57902 21.3603 1.71967 21.2197C1.86032 21.079 2.05109 21 2.25 21ZM5.25 21C5.44891 21 5.63968 21.079 5.78033 21.2197C5.92098 21.3603 6 21.5511 6 21.75C6 21.9489 5.92098 22.1397 5.78033 22.2803C5.63968 22.421 5.44891 22.5 5.25 22.5C5.05109 22.5 4.86032 22.421 4.71967 22.2803C4.57902 22.1397 4.5 21.9489 4.5 21.75C4.5 21.5511 4.57902 21.3603 4.71967 21.2197C4.86032 21.079 5.05109 21 5.25 21ZM1.5 2.25C1.5 2.05109 1.57902 1.86032 1.71967 1.71967C1.86032 1.57902 2.05109 1.5 2.25 1.5H9.75C9.94891 1.5 10.1397 1.57902 10.2803 1.71967C10.421 1.86032 10.5 2.05109 10.5 2.25C10.5 2.44891 10.421 2.63968 10.2803 2.78033C10.1397 2.92098 9.94891 3 9.75 3H2.25C2.05109 3 1.86032 2.92098 1.71967 2.78033C1.57902 2.63968 1.5 2.44891 1.5 2.25ZM2.25 4.5H9.75C9.94891 4.5 10.1397 4.57902 10.2803 4.71967C10.421 4.86032 10.5 5.05109 10.5 5.25C10.5 5.44891 10.421 5.63968 10.2803 5.78033C10.1397 5.92098 9.94891 6 9.75 6H2.25C2.05109 6 1.86032 5.92098 1.71967 5.78033C1.57902 5.63968 1.5 5.44891 1.5 5.25C1.5 5.05109 1.57902 4.86032 1.71967 4.71967C1.86032 4.57902 2.05109 4.5 2.25 4.5Z" fill="#99E6FA"/>
</svg>
