<svg width="26" height="24" viewBox="0 0 26 24" fill="none" xmlns="http://www.w3.org/2000/svg">
<path d="M13.0001 0.333313C13.6189 0.333313 14.2124 0.579146 14.65 1.01673C15.0876 1.45432 15.3334 2.04781 15.3334 2.66665C15.3334 3.52998 14.8667 4.28831 14.1667 4.68498V6.16665H15.3334C17.4993 6.16665 19.5766 7.02706 21.1081 8.55861C22.6397 10.0902 23.5001 12.1674 23.5001 14.3333H24.6667C24.9762 14.3333 25.2729 14.4562 25.4917 14.675C25.7105 14.8938 25.8334 15.1906 25.8334 15.5V19C25.8334 19.3094 25.7105 19.6061 25.4917 19.8249C25.2729 20.0437 24.9762 20.1666 24.6667 20.1666H23.5001V21.3333C23.5001 21.9522 23.2542 22.5456 22.8167 22.9832C22.3791 23.4208 21.7856 23.6666 21.1667 23.6666H4.83341C4.21458 23.6666 3.62108 23.4208 3.1835 22.9832C2.74591 22.5456 2.50008 21.9522 2.50008 21.3333V20.1666H1.33341C1.024 20.1666 0.727249 20.0437 0.508457 19.8249C0.289664 19.6061 0.166748 19.3094 0.166748 19V15.5C0.166748 15.1906 0.289664 14.8938 0.508457 14.675C0.727249 14.4562 1.024 14.3333 1.33341 14.3333H2.50008C2.50008 12.1674 3.3605 10.0902 4.89204 8.55861C6.42359 7.02706 8.50081 6.16665 10.6667 6.16665H11.8334V4.68498C11.1334 4.28831 10.6667 3.52998 10.6667 2.66665C10.6667 2.04781 10.9126 1.45432 11.3502 1.01673C11.7878 0.579146 12.3812 0.333313 13.0001 0.333313ZM7.75008 13.1666C6.97653 13.1666 6.23467 13.4739 5.68769 14.0209C5.14071 14.5679 4.83341 15.3098 4.83341 16.0833C4.83341 16.8569 5.14071 17.5987 5.68769 18.1457C6.23467 18.6927 6.97653 19 7.75008 19C8.52363 19 9.26549 18.6927 9.81248 18.1457C10.3595 17.5987 10.6667 16.8569 10.6667 16.0833C10.6667 15.3098 10.3595 14.5679 9.81248 14.0209C9.26549 13.4739 8.52363 13.1666 7.75008 13.1666ZM18.2501 13.1666C17.4765 13.1666 16.7347 13.4739 16.1877 14.0209C15.6407 14.5679 15.3334 15.3098 15.3334 16.0833C15.3334 16.8569 15.6407 17.5987 16.1877 18.1457C16.7347 18.6927 17.4765 19 18.2501 19C19.0236 19 19.7655 18.6927 20.3125 18.1457C20.8595 17.5987 21.1667 16.8569 21.1667 16.0833C21.1667 15.3098 20.8595 14.5679 20.3125 14.0209C19.7655 13.4739 19.0236 13.1666 18.2501 13.1666Z" fill="#010304"/>
</svg>
